<svg xmlns="http://www.w3.org/2000/svg" width="27" height="33" fill="none" viewBox="0 0 27 33"><path fill="url(#paint0_linear_37_571)" d="M13.4059 13.624C13.4859 13.72 13.6699 13.928 13.9579 14.248C14.2619 14.568 14.5019 14.896 14.6779 15.232C14.8699 15.552 14.9659 15.864 14.9659 16.168C14.9659 16.552 14.8219 16.912 14.5339 17.248C14.1819 17.68 13.7499 17.896 13.2379 17.896C13.0139 17.896 12.7659 17.864 12.4939 17.8C12.2219 17.736 12.0459 17.696 11.9659 17.68C10.7019 17.424 9.22988 17.296 7.54988 17.296C6.25388 17.296 4.87788 17.36 3.42188 17.488C3.29388 17.504 3.10988 17.52 2.86988 17.536C2.62988 17.552 2.41388 17.56 2.22188 17.56C1.64588 17.56 1.18188 17.472 0.829875 17.296C0.493875 17.104 0.325875 16.76 0.325875 16.264C0.325875 15.976 0.381875 15.672 0.493875 15.352C0.605875 15.016 0.773875 14.616 0.997875 14.152L1.21387 13.648C1.45388 13.056 1.71788 12.608 2.00587 12.304C2.29388 11.984 2.70188 11.824 3.22988 11.824C3.66188 11.824 3.99788 11.968 4.23788 12.256C4.49388 12.528 4.62188 12.872 4.62188 13.288C4.62188 13.576 4.54988 13.864 4.40588 14.152C5.41388 14.088 6.55788 14.056 7.83788 14.056C8.58988 14.056 9.15788 14.064 9.54188 14.08C8.06988 12.224 6.97388 10.824 6.25388 9.88L4.59788 7.792C4.34188 7.472 4.12588 7.224 3.94987 7.048C3.35788 6.36 2.90988 5.776 2.60588 5.296C2.30188 4.8 2.14988 4.296 2.14988 3.784C2.14988 3.304 2.31788 2.92 2.65388 2.632C3.00588 2.328 3.41388 2.104 3.87788 1.96C4.35788 1.8 4.95788 1.648 5.67788 1.504L6.68588 1.288C7.94988 0.967999 9.25388 0.679999 10.5979 0.423999C10.7099 0.407999 10.9339 0.367999 11.2699 0.303999C11.8139 0.159999 12.2939 0.0879989 12.7099 0.0879989C13.2379 0.0879989 13.6379 0.231999 13.9099 0.519999C14.1979 0.823999 14.3419 1.136 14.3419 1.456C14.3419 1.76 14.2459 2.064 14.0539 2.368C13.8779 2.672 13.5899 3.072 13.1899 3.568C12.7099 4.144 12.4059 4.568 12.2779 4.84C12.0699 5.288 11.8459 5.664 11.6059 5.968C11.3819 6.272 11.1259 6.424 10.8379 6.424C10.6299 6.424 10.4219 6.344 10.2139 6.184C9.98988 6.008 9.87788 5.768 9.87788 5.464C9.87788 5.24 9.92588 5.008 10.0219 4.768C10.1339 4.512 10.2379 4.28 10.3339 4.072C10.4459 3.864 10.5179 3.736 10.5499 3.688C9.73388 3.832 8.52588 4.112 6.92588 4.528C6.73388 4.592 6.34188 4.696 5.74988 4.84L8.62988 8.152C11.0939 10.952 12.6859 12.776 13.4059 13.624ZM23.127 11.248C23.367 10.64 23.487 10.056 23.487 9.496C23.487 8.76 23.279 8.16 22.863 7.696C22.239 6.96 21.191 6.608 19.719 6.64C19.431 9.168 19.207 12.216 19.047 15.784C19.959 15.304 20.775 14.672 21.495 13.888C22.215 13.088 22.759 12.208 23.127 11.248ZM19.959 4.768C20.135 4.752 20.407 4.744 20.775 4.744C22.727 4.744 24.183 5.224 25.143 6.184C25.863 6.888 26.223 7.792 26.223 8.896C26.223 9.472 26.095 10.16 25.839 10.96C25.311 12.464 24.431 13.816 23.199 15.016C21.967 16.2 20.559 17.104 18.975 17.728C18.911 19.36 18.863 20.784 18.831 22C18.799 23.232 18.775 24.256 18.759 25.072C18.743 27.024 18.695 28.984 18.615 30.952C18.599 31.288 18.359 31.584 17.895 31.84C17.431 32.096 16.959 32.224 16.479 32.224C15.919 32.224 15.639 32.016 15.639 31.6L15.663 29.68C15.679 29.056 15.703 27.552 15.735 25.168C15.783 22.784 15.855 20.56 15.951 18.496C15.519 18.544 15.095 18.568 14.679 18.568C14.375 18.568 14.151 18.52 14.007 18.424C13.847 18.328 13.767 18.2 13.767 18.04C13.767 17.752 13.967 17.448 14.367 17.128C14.751 16.808 15.143 16.648 15.543 16.648C15.767 16.648 15.927 16.64 16.023 16.624C16.199 13.184 16.471 9.88 16.839 6.712C16.727 6.648 16.671 6.544 16.671 6.4C16.671 6.208 16.775 5.984 16.983 5.728C16.983 5.632 16.999 5.472 17.031 5.248C17.079 4.912 17.335 4.624 17.799 4.384C18.263 4.128 18.711 4 19.143 4C19.415 4 19.623 4.056 19.767 4.168C19.927 4.28 19.991 4.448 19.959 4.672V4.768Z"/><defs><linearGradient id="paint0_linear_37_571" x1="13.5" x2="5.311" y1="-4" y2="19.351" gradientUnits="userSpaceOnUse"><stop stop-color="#EB00FF"/><stop offset="1" stop-color="#7E13F8"/></linearGradient></defs></svg>