<svg xmlns="http://www.w3.org/2000/svg" width="256" height="256" preserveAspectRatio="xMidYMid" version="1.1" viewBox="0 0 256 256"><title>Dart</title><defs><radialGradient id="dartGradient-1" cx="50%" cy="50.002%" r="50.004%" fx="50%" fy="50.002%" gradientTransform="translate(0.500000,0.500016),scale(1.000000,0.999853),translate(-0.500000,-0.500016)"><stop offset="0%" stop-color="#FFF" stop-opacity=".1"/><stop offset="100%" stop-color="#FFF" stop-opacity="0"/></radialGradient></defs><g><path fill="#01579B" d="M52.2087928,203.791207 L8.41288046,159.995295 C3.21835024,154.669019 0,147.140715 0,139.781797 C0,136.375239 1.91971769,131.048963 3.36891634,128 L43.7959124,43.7959124 L52.2087928,203.791207 Z"/><path fill="#40C4FF" d="M202.116159,52.2087928 L158.320247,8.41288046 C154.499632,4.57344508 146.53845,0 139.800618,0 C134.003823,0 128.319953,1.16688722 124.649904,3.36891634 L43.8147331,43.7959124 L202.116159,52.2087928 Z"/><polygon fill="#40C4FF" points="104.418 256 210.529 256 210.529 210.529 131.369 185.253 58.947 210.529"/><path fill="#29B6F6" d="M43.7959124,180.208793 C43.7959124,193.7221 45.4897809,197.034554 52.2087928,203.791207 L58.9466255,210.52904 L210.52904,210.52904 L136.431701,126.324952 L43.7959124,43.7959124 L43.7959124,180.208793 Z"/><path fill="#01579B" d="M178.533745,43.7770916 L43.7959124,43.7770916 L210.52904,210.510219 L256,210.510219 L256,106.092633 L202.097339,52.1899721 C194.531392,44.6052051 187.812381,43.7770916 178.533745,43.7770916 Z"/><path fill="#FFF" d="M53.9026614,205.466255 C47.1648287,198.709602 45.4897809,192.047052 45.4897809,180.208793 L45.4897809,45.4709602 L43.8147331,43.7959124 L43.8147331,180.208793 C43.7959124,192.047052 43.7959124,195.321864 53.9026614,205.466255 L58.9466255,210.510219 L58.9466255,210.510219 L53.9026614,205.466255 Z" opacity=".2"/><polygon fill="#263238" points="254.325 104.418 254.325 208.835 208.854 208.835 210.529 210.529 256 210.529 256 106.093" opacity=".2"/><path fill="#FFF" d="M202.116159,52.2087928 C193.759741,43.8523747 186.927805,43.7959124 176.858697,43.7959124 L43.8147331,43.7959124 L45.4897809,45.4709602 L176.858697,45.4709602 C181.883841,45.4709602 194.569034,44.6240259 202.116159,52.2087928 L202.116159,52.2087928 Z" opacity=".2"/><path fill="url(#dartGradient-1)" d="M254.324952,104.417586 L202.116159,52.2087928 L158.320247,8.41288046 C154.499632,4.57344508 146.53845,0 139.800618,0 C134.003823,0 128.319953,1.16688722 124.649904,3.36891634 L43.8147331,43.7959124 L3.3877371,128 C1.93853845,131.067784 0.0188207617,136.39406 0.0188207617,139.781797 C0.0188207617,147.140715 3.25599177,154.650199 8.43170122,159.995295 L48.7834142,200.064696 C49.743273,201.250404 50.8725187,202.454933 52.2087928,203.791207 L53.8838406,205.466255 L58.9278047,210.510219 L102.723717,254.306131 L104.398765,255.981179 L208.816351,255.981179 L210.491398,255.981179 L210.491398,210.510219 L255.962358,210.510219 L255.962358,210.397295 L255.962358,106.092633 L254.324952,104.417586 Z" opacity=".2"/></g></svg>